<svg xmlns="http://www.w3.org/2000/svg"
     width="600" height="400" viewBox="0 0 600 400"
     role="graphics-document document" xml:lang="en">
    <title>Home</title>
    <g role="img" aria-label="background">
        <desc>Blue sky, sunshine, and green grass</desc>
        <!-- The multiple parts of the background form a single image
             conveyed by that one description. -->
        <rect fill="lightSkyBlue" height="100%" width="100%" />
        <circle fill="yellow" stroke="gold" stroke-width="4"
                cx="0" cy="0" r="50" />
        <path fill="none" stroke="gold" stroke-width="3"
              d="M55,10L70,12 
                 M48,20L67,24
                 M45,25L65,30
                 M40,30L60,42
                 M35,37L47,47
                 M25,45L35,58
                 M15,50L18,68
                 M8,52L9,70" />
        <rect fill="#6a2" y="300" width="100%" height="100" />
    </g>
    <g role="graphics-object group"
       aria-labelledby="house-label"
       transform="translate(100,325)">
        <desc>A two-storey brick house, drawn with basic shapes.
        </desc>
        <!-- The house has a number of details worth calling out,
             so it is a graphical object -->
        
        <rect fill="firebrick" stroke="darkRed"
              width="300" height="200" y="-200"
              role="none" /><!-- the walls of the house are 
                already described thoroughly,
                so no role is required -->
              
        <g role="graphics-object" aria-label="door"
           transform="translate(30,-90)">
            <desc>The brown door on the left side of the building
                has a window and a round doorknob</desc>
            <!-- The graphical object role allows for further
                 nested sub-components.
                 However, based on the default SVG API mappings,
                 these shapes, which have neither labels nor descriptions,
                 will be treated as presentation. -->
            <rect fill="burlyWood" stroke="#632"
                  width="50" height="90"/>
            <rect fill="lightSteelBlue" stroke="#632" stroke-width="4" 
                  x="5" y="5" width="40" height="30" />
            <circle fill="gray" stroke="#444" stroke-width="0.7"
                    cx="10" cy="50" r="4" />
        </g>
            
        <g role="group" aria-label="windows"
           fill="lightSteelBlue" stroke="#632" stroke-width="6">
            <!-- The windows are distinct objects, 
                 grouped together with a common label -->
            <g role="none" transform="translate(0,-85)">
                <rect aria-label="first-floor window"
                      x="95" width="25" height="45">
                    <desc>A small window beside the door</desc>
                </rect>
                <path aria-label="first-floor living-room window"
                      d="M180,0h100v60h-100v-60z
                         m30,0v60 m40,0v-60">
                    <desc>A large three-pane window fills
                    the rest of the first floor</desc>
                </path>
            </g>
            <g role="none" transform="translate(0,-180)">
                <path aria-label="second-floor window on left"
                      d="M20,0h80v50h-80v-50z
                         m40,0v50">
                    <desc>A two-pane window</desc>
                </path>
                <path aria-label="second-floor window on right"
                      d="M200,0h80v50h-80v-50z
                         m40,0v50">
                    <desc>A matching two-pane window
                    on the other side of the house</desc>
                </path>
                <circle cx="150" cy="20" r="15" aria="round window">
                    <desc>A small circular window
                    in the middle of the second floor</desc>
                </circle>
            </g>
        </g>
        
        <g aria-label="roof" role="graphics-object group"
           transform="translate(0,-200)">
            <desc>A peaked roof</desc>
            <g aria-label="chimney" role="graphics-object">
                <desc>The chimney has a puff of smoke
                rising from it</desc>
                <rect fill="firebrick" stroke="darkRed"
                      x="280" y="-60" width="20" height="60" />
                <path fill="gray" fill-opacity="0.4"
                      d="M280,-70c0-10 30-20 45-35
                         c15-40 25,10 25,20 s-70,25 -70,15z" />
            </g>
            
            <polygon role="none" fill="#222"
                     points="-20,2 150,-100 320,2" />
        </g>
        
        <g role="group" aria-label="trees" fill="#141"
           transform="translate(300,25)">
            <desc>A cluster of plants in the yard</desc>
            <g role="img" aria-label="apple tree"
                transform="translate(80,-125)" >
                <title>Apples!</title>
                <desc>a small decidous tree
                with 5 ripe red apples on it</desc>
                <rect fill="burlyWood" stroke="sienna"
                      x="-10" y="25" height="80" width="20" />
                <circle r="50" />
                <circle r="30" cx="30" />
                <circle r="40" cx="-15" cy="10" />
                <g fill="#c31">
                    <circle cx="-5" cy="-5" r="6" />
                    <circle cx="-15" cy="30" r="6" />
                    <circle cx="40" cy="-20" r="6" />
                    <circle cx="-25" cy="-33" r="6" />
                    <circle cx="25" cy="30" r="6" />
                </g>
            </g>
            <path aria-label="pine tree"
                  transform="translate(150,-100)"
                  d="M0,0
                     Q10,25 15,30 L5,25 
                     Q15,45 25,55 L15,50
                     Q25,80 35,100 Q10,95 0,90
                     Q-15,95 -33,100 Q-17,75 -15,60
                     L-25,65 Q-15,50 -10,30 
                     L-15,35 Q-10,20 0,0Z">
                <desc>a small tree with drooping branches</desc>
            </path>
            
            <g role="img" aria-label="a low bush">
                <desc>at the base of the apple tree</desc>
                <circle cx="50" cy="-10" r="30" />
                <circle cx="80" cy="-25" r="12" />
                <circle cx="80" cy="0" r="20" />                
            </g>
        </g>
                    
        <text id="house-label"
              font-family="cursive" font-size="48px" 
              x="40" y="50">My House</text>
    </g>
</svg>